<svg xmlns="http://www.w3.org/2000/svg" xmlns:xlink="http://www.w3.org/1999/xlink" preserveAspectRatio="xMidYMid" width="16" height="16" viewBox="0 0 16 16">
  <defs>
    <style>
      .cls-1 {
        fill: #424242;
        fill-rule: evenodd;
      }
    </style>
  </defs>
  <path d="M7.014,0.009 C6.738,0.009 6.502,0.107 6.307,0.302 C6.111,0.497 6.014,0.733 6.014,1.009 L6.014,3.009 L1.014,3.009 C0.738,3.009 0.502,3.107 0.307,3.302 C0.111,3.497 0.014,3.733 0.014,4.009 L0.014,15.009 C0.014,15.285 0.111,15.521 0.307,15.716 C0.502,15.911 0.738,16.009 1.014,16.009 L9.014,16.009 C9.290,16.009 9.526,15.911 9.721,15.716 C9.916,15.521 10.014,15.285 10.014,15.009 L10.014,13.009 L15.014,13.009 C15.290,13.009 15.526,12.911 15.721,12.716 C15.916,12.521 16.014,12.285 16.014,12.009 L16.014,1.009 C16.014,0.733 15.916,0.497 15.721,0.302 C15.526,0.107 15.290,0.009 15.014,0.009 L7.014,0.009 ZM1.014,15.009 L1.014,4.009 L6.014,4.009 L6.014,6.009 L2.264,6.009 C2.191,6.009 2.131,6.032 2.084,6.079 C2.037,6.126 2.014,6.186 2.014,6.259 C2.014,6.332 2.037,6.392 2.084,6.439 C2.131,6.485 2.191,6.509 2.264,6.509 L6.014,6.509 L6.014,8.009 L2.264,8.009 C2.191,8.009 2.131,8.032 2.084,8.079 C2.037,8.126 2.014,8.186 2.014,8.259 C2.014,8.332 2.037,8.392 2.084,8.439 C2.131,8.485 2.191,8.509 2.264,8.509 L6.014,8.509 L6.014,10.009 L2.264,10.009 C2.191,10.009 2.131,10.032 2.084,10.079 C2.037,10.126 2.014,10.186 2.014,10.259 C2.014,10.332 2.037,10.392 2.084,10.439 C2.131,10.485 2.191,10.509 2.264,10.509 L6.014,10.509 L6.014,12.009 L2.264,12.009 C2.191,12.009 2.131,12.032 2.084,12.079 C2.037,12.126 2.014,12.186 2.014,12.259 C2.014,12.332 2.037,12.392 2.084,12.439 C2.131,12.485 2.191,12.509 2.264,12.509 L6.154,12.509 C6.243,12.660 6.363,12.781 6.514,12.872 C6.665,12.963 6.831,13.009 7.014,13.009 L9.014,13.009 L9.014,15.009 L1.014,15.009 ZM7.014,12.009 L7.014,1.009 L15.014,1.009 L15.014,12.009 L7.014,12.009 ZM13.764,3.509 C13.837,3.509 13.897,3.485 13.944,3.439 C13.990,3.392 14.014,3.332 14.014,3.259 C14.014,3.186 13.990,3.126 13.944,3.079 C13.897,3.032 13.837,3.009 13.764,3.009 L8.264,3.009 C8.191,3.009 8.131,3.032 8.084,3.079 C8.037,3.126 8.014,3.186 8.014,3.259 C8.014,3.332 8.037,3.392 8.084,3.439 C8.131,3.485 8.191,3.509 8.264,3.509 L13.764,3.509 ZM13.764,5.509 C13.837,5.509 13.897,5.485 13.944,5.439 C13.990,5.392 14.014,5.332 14.014,5.259 C14.014,5.186 13.990,5.126 13.944,5.079 C13.897,5.032 13.837,5.009 13.764,5.009 L8.264,5.009 C8.191,5.009 8.131,5.032 8.084,5.079 C8.037,5.126 8.014,5.186 8.014,5.259 C8.014,5.332 8.037,5.392 8.084,5.439 C8.131,5.485 8.191,5.509 8.264,5.509 L13.764,5.509 ZM13.764,7.509 C13.837,7.509 13.897,7.485 13.944,7.439 C13.990,7.392 14.014,7.332 14.014,7.259 C14.014,7.186 13.990,7.126 13.944,7.079 C13.897,7.032 13.837,7.009 13.764,7.009 L8.264,7.009 C8.191,7.009 8.131,7.032 8.084,7.079 C8.037,7.126 8.014,7.186 8.014,7.259 C8.014,7.332 8.037,7.392 8.084,7.439 C8.131,7.485 8.191,7.509 8.264,7.509 L13.764,7.509 ZM13.764,9.509 C13.837,9.509 13.897,9.485 13.944,9.439 C13.990,9.392 14.014,9.332 14.014,9.259 C14.014,9.186 13.990,9.126 13.944,9.079 C13.897,9.032 13.837,9.009 13.764,9.009 L8.264,9.009 C8.191,9.009 8.131,9.032 8.084,9.079 C8.037,9.126 8.014,9.186 8.014,9.259 C8.014,9.332 8.037,9.392 8.084,9.439 C8.131,9.485 8.191,9.509 8.264,9.509 L13.764,9.509 Z" class="cls-1"/>
</svg>
