<?xml version="1.0" encoding="utf-8"?>
<!-- Generator: Adobe Illustrator 19.0.0, SVG Export Plug-In . SVG Version: 6.00 Build 0)  -->
<svg version="1.1" id="Layer_1" xmlns="http://www.w3.org/2000/svg" xmlns:xlink="http://www.w3.org/1999/xlink" x="0px" y="0px"
	 viewBox="-376.3 258.7 84 79.6" style="enable-background:new -376.3 258.7 84 79.6;" xml:space="preserve">
<style type="text/css">
	.st0{fill:#EDEDED;}
	.st1{fill:none;stroke:#7F7F7F;stroke-width:3;}
	.st2{fill:#FFFFFF;stroke:#EC2216;stroke-width:2;}
</style>
<g>
	<path class="st0" d="M-299.8,275.1c0,0.9,0,1.8-0.2,2.8l-14.6,47.9c-0.5,1.7-2.6,2.8-4.4,2.8h-44.8c-2.7,0-6-0.6-7-3.4
		c-0.4-1.1,0-2.1,0-2.1s20.8-61.8,19.7-57.9h45C-305.4,262.9-298.7,275.6-299.8,275.1z"/>
	<path class="st1" d="M-295.4,278.7c-0.7-1-1.7-1.6-2.9-2.1c0,0.9,0,1.8-0.2,2.8l-14.6,47.9c-0.5,1.7-2.6,2.8-4.4,2.8h-44.8
		c-2.7,0-6-0.6-7-3.4c-0.4-1.1-0.3-1.5,0-2.1c0.4-0.6,1.2-0.7,1.8-0.7h42.2c6.2,0,7.4-1.6,9.7-9.1l13.3-44c0.7-2.3,0.4-4.6-0.9-6.3
		c-1.2-1.7-3.3-2.7-5.5-2.7h-36.9c-0.8,0-1.7,0.2-2.5,0.4l0-0.1c-6.2-1.7-6.6,4.9-8.6,7.9c-0.8,1.1-1.9,2.1-2.1,3
		c-0.1,0.9,0.3,1.7,0.2,2.5c-0.3,2.6-2.2,7.2-3.4,8.8c-0.7,1-1.8,1.5-2.1,2.6c-0.3,0.8,0.2,1.9,0.1,2.9c-0.2,2.3-1.9,6.6-3.3,8.8
		c-0.5,0.9-1.4,1.6-1.6,2.5c-0.2,0.8,0.2,1.9,0,2.8c-0.5,2.5-2.2,6.5-3.6,8.9c-0.8,1.3-1.8,2.1-2,3.3c-0.1,0.6,0.3,1.2,0.3,2
		c0,1.2-0.2,2.1-0.3,3.1c-0.7,1.8-0.7,4,0.1,6.2c1.8,5,7.1,9,12,9h44.8c4.2,0,8.4-3.2,9.7-7.3l13.3-44
		C-293.9,282.8-294.2,280.5-295.4,278.7z"/>
	<path class="st2" d="M-347.6,278.3l1-3.1c0.3-0.9,1.2-1.6,2-1.6h29.5c0.9,0,1.4,0.7,1.1,1.6l-1,3.1c-0.3,0.9-1.2,1.6-2,1.6h-29.5
		C-347.4,279.9-347.9,279.2-347.6,278.3z M-351.6,290.7l1-3.1c0.3-0.9,1.2-1.6,2-1.6h29.5c0.9,0,1.4,0.7,1.1,1.6l-1,3.1
		c-0.3,0.9-1.2,1.6-2,1.6h-29.5C-351.4,292.3-351.9,291.6-351.6,290.7z"/>
</g>
</svg>
