<svg xmlns="http://www.w3.org/2000/svg" xmlns:xlink="http://www.w3.org/1999/xlink" preserveAspectRatio="xMidYMid" width="14" height="14" viewBox="0 0 14 14">
  <defs>
    <style>
      .cls-1 {
        fill: #666;
        fill-rule: evenodd;
      }
    </style>
  </defs>
  <path d="M3.382,0.126 C3.295,0.039 3.193,-0.004 3.074,-0.004 L0.449,-0.004 C0.331,-0.004 0.228,0.039 0.142,0.126 C0.055,0.212 0.012,0.315 0.012,0.433 L0.012,3.058 C0.012,3.177 0.055,3.279 0.142,3.366 C0.228,3.453 0.331,3.496 0.449,3.496 L3.074,3.496 C3.193,3.496 3.295,3.453 3.382,3.366 C3.468,3.279 3.512,3.177 3.512,3.058 L3.512,0.433 C3.512,0.315 3.468,0.212 3.382,0.126 ZM13.882,0.126 C13.795,0.039 13.693,-0.004 13.574,-0.004 L10.949,-0.004 C10.831,-0.004 10.728,0.039 10.642,0.126 C10.555,0.212 10.512,0.315 10.512,0.433 L10.512,3.058 C10.512,3.177 10.555,3.279 10.642,3.366 C10.728,3.453 10.831,3.496 10.949,3.496 L13.574,3.496 C13.693,3.496 13.795,3.453 13.882,3.366 C13.968,3.279 14.012,3.177 14.012,3.058 L14.012,0.433 C14.012,0.315 13.968,0.212 13.882,0.126 ZM8.632,0.126 C8.545,0.039 8.443,-0.004 8.324,-0.004 L5.699,-0.004 C5.581,-0.004 5.478,0.039 5.392,0.126 C5.305,0.212 5.262,0.315 5.262,0.433 L5.262,3.058 C5.262,3.177 5.305,3.279 5.392,3.366 C5.478,3.453 5.581,3.496 5.699,3.496 L8.324,3.496 C8.443,3.496 8.545,3.453 8.632,3.366 C8.718,3.279 8.762,3.177 8.762,3.058 L8.762,0.433 C8.762,0.315 8.718,0.212 8.632,0.126 ZM3.382,5.376 C3.295,5.289 3.193,5.246 3.074,5.246 L0.449,5.246 C0.331,5.246 0.228,5.289 0.142,5.376 C0.055,5.462 0.012,5.565 0.012,5.683 L0.012,8.308 C0.012,8.427 0.055,8.529 0.142,8.616 C0.228,8.703 0.331,8.746 0.449,8.746 L3.074,8.746 C3.193,8.746 3.295,8.703 3.382,8.616 C3.468,8.529 3.512,8.427 3.512,8.308 L3.512,5.683 C3.512,5.565 3.468,5.462 3.382,5.376 ZM13.882,5.376 C13.795,5.289 13.693,5.246 13.574,5.246 L10.949,5.246 C10.831,5.246 10.728,5.289 10.642,5.376 C10.555,5.462 10.512,5.565 10.512,5.683 L10.512,8.308 C10.512,8.427 10.555,8.529 10.642,8.616 C10.728,8.703 10.831,8.746 10.949,8.746 L13.574,8.746 C13.693,8.746 13.795,8.703 13.882,8.616 C13.968,8.529 14.012,8.427 14.012,8.308 L14.012,5.683 C14.012,5.565 13.968,5.462 13.882,5.376 ZM8.632,5.376 C8.545,5.289 8.443,5.246 8.324,5.246 L5.699,5.246 C5.581,5.246 5.478,5.289 5.392,5.376 C5.305,5.462 5.262,5.565 5.262,5.683 L5.262,8.308 C5.262,8.427 5.305,8.529 5.392,8.616 C5.478,8.703 5.581,8.746 5.699,8.746 L8.324,8.746 C8.443,8.746 8.545,8.703 8.632,8.616 C8.718,8.529 8.762,8.427 8.762,8.308 L8.762,5.683 C8.762,5.565 8.718,5.462 8.632,5.376 ZM3.382,10.626 C3.295,10.539 3.193,10.496 3.074,10.496 L0.449,10.496 C0.331,10.496 0.228,10.539 0.142,10.626 C0.055,10.712 0.012,10.815 0.012,10.933 L0.012,13.558 C0.012,13.677 0.055,13.779 0.142,13.866 C0.228,13.953 0.331,13.996 0.449,13.996 L3.074,13.996 C3.193,13.996 3.295,13.953 3.382,13.866 C3.468,13.779 3.512,13.677 3.512,13.558 L3.512,10.933 C3.512,10.815 3.468,10.712 3.382,10.626 ZM8.632,10.626 C8.545,10.539 8.443,10.496 8.324,10.496 L5.699,10.496 C5.581,10.496 5.478,10.539 5.392,10.626 C5.305,10.712 5.262,10.815 5.262,10.933 L5.262,13.558 C5.262,13.677 5.305,13.779 5.392,13.866 C5.478,13.953 5.581,13.996 5.699,13.996 L8.324,13.996 C8.443,13.996 8.545,13.953 8.632,13.866 C8.718,13.779 8.762,13.677 8.762,13.558 L8.762,10.933 C8.762,10.815 8.718,10.712 8.632,10.626 ZM13.882,10.626 C13.795,10.539 13.693,10.496 13.574,10.496 L10.949,10.496 C10.831,10.496 10.728,10.539 10.642,10.626 C10.555,10.712 10.512,10.815 10.512,10.933 L10.512,13.558 C10.512,13.677 10.555,13.779 10.642,13.866 C10.728,13.953 10.831,13.996 10.949,13.996 L13.574,13.996 C13.693,13.996 13.795,13.953 13.882,13.866 C13.968,13.779 14.012,13.677 14.012,13.558 L14.012,10.933 C14.012,10.815 13.968,10.712 13.882,10.626 Z" class="cls-1"/>
</svg>
