<svg xmlns="http://www.w3.org/2000/svg" xmlns:xlink="http://www.w3.org/1999/xlink" preserveAspectRatio="xMidYMid" width="16" height="14.469" viewBox="0 0 16 14.469">
  <defs>
    <style>
      .cls-1 {
        fill: #424242;
        fill-rule: evenodd;
      }
    </style>
  </defs>
  <path d="M12.373,2.478 C12.467,2.624 12.514,2.788 12.514,2.970 C12.514,3.147 12.467,3.316 12.373,3.478 L14.014,3.478 C14.285,3.478 14.519,3.577 14.717,3.775 C14.915,3.973 15.014,4.207 15.014,4.478 L15.014,5.009 L8.014,9.681 L1.014,5.009 L1.014,4.478 C1.014,4.207 1.113,3.973 1.311,3.775 C1.509,3.577 1.743,3.478 2.014,3.478 L3.608,3.478 C3.545,3.301 3.514,3.134 3.514,2.978 C3.514,2.822 3.545,2.655 3.608,2.478 L2.014,2.478 C1.462,2.478 0.990,2.673 0.600,3.064 C0.209,3.454 0.014,3.926 0.014,4.478 L0.014,12.478 C0.014,13.030 0.209,13.501 0.600,13.892 C0.990,14.283 1.462,14.478 2.014,14.478 L14.014,14.478 C14.566,14.478 15.037,14.283 15.428,13.892 C15.819,13.501 16.014,13.030 16.014,12.478 L16.014,4.478 C16.014,3.926 15.819,3.454 15.428,3.064 C15.037,2.673 14.566,2.478 14.014,2.478 L12.373,2.478 ZM14.717,13.181 C14.519,13.379 14.285,13.478 14.014,13.478 L2.014,13.478 C1.743,13.478 1.509,13.379 1.311,13.181 C1.113,12.983 1.014,12.749 1.014,12.478 L1.014,5.611 L8.014,10.275 L15.014,5.611 L15.014,12.478 C15.014,12.749 14.915,12.983 14.717,13.181 ZM9.514,3.486 L7.951,5.126 C7.852,5.225 7.803,5.345 7.803,5.486 C7.803,5.621 7.852,5.738 7.951,5.837 C8.045,5.931 8.162,5.978 8.303,5.978 C8.444,5.978 8.563,5.931 8.662,5.837 L11.514,2.986 L8.662,0.126 C8.563,0.033 8.444,-0.014 8.303,-0.014 C8.162,-0.014 8.045,0.033 7.951,0.126 C7.852,0.225 7.803,0.344 7.803,0.482 C7.803,0.620 7.852,0.738 7.951,0.837 L9.514,2.486 L5.014,2.486 C4.878,2.486 4.761,2.535 4.662,2.634 C4.563,2.733 4.514,2.850 4.514,2.986 C4.514,3.126 4.563,3.245 4.662,3.341 C4.761,3.438 4.878,3.486 5.014,3.486 L9.514,3.486 Z" class="cls-1"/>
</svg>
